<svg xmlns="http://www.w3.org/2000/svg" viewBox="0 0 103.75 104.6"><defs><style>.cls-1{fill:#262626;opacity:0.1;}.cls-2,.cls-3{fill:#fff;}.cls-3,.cls-4,.cls-5,.cls-6{fill-rule:evenodd;}.cls-4{fill:#dac12b;}.cls-5{fill:#28166f;}.cls-6{fill:none;stroke:#dac12b;stroke-miterlimit:10;stroke-width:2.33px;}</style></defs><g id="Capa_2" data-name="Capa 2"><g id="Capa_1-2" data-name="Capa 1"><circle class="cls-1" cx="51.87" cy="52.72" r="51.87"/><circle class="cls-2" cx="51.02" cy="50.17" r="50.17"/><path class="cls-3" d="M68.65,30.81l-.08-.76H63.28L71,26l-.26-.5-8.63,2.68,4.63-3.9-.43-.42L61,26.23l6.54-6.55-.48-.42-7.62,5.28,3.57-5-.46-.39-4.41,3.73,4.2-8.16-.51-.3-5.26,7L57.77,16l-.56-.31-2.73,5,.57-8.65L54.53,12l-2.41,8.4-.75-5.47h-.49l-.76,5.78-2.34-8.46-.72.16.85,8.74-2.72-5.06-.55.27,1.29,5.37L41,14.58l-.64.46,3.49,7.64-4.22-3.75-.56.45,3.42,5L35,19.26l-.43.6,6.31,6.07-5.52-2.16-.33.57,4.85,3.46-8.58-2.18-.27.49,8.15,3.94H33.5l-.12.77H23.49V78c0,3.4,3.89,7.9,13.14,9.37s11.1,1.56,14.42,4.17c3.33-2.61,5.18-2.72,14.42-4.19s13.08-6,13.08-9.32V30.81Z"/><path class="cls-4" d="M27.64,75.52c0-12.95-.18-27.85-.18-40.79H74.6V75.34c0,3.84-1,6.32-9.16,8s-11.56,1.36-14.39,3.29c-2.83-1.93-6.17-2.06-14.28-3.29s-9.19-4.89-9.19-7.72M23.5,78V30.81h9.89L33.5,30h5.64L31,26.11l.27-.49,8.58,2.18L35,24.34l.33-.57,5.52,2.16-6.31-6.07.43-.6,7.52,5.09-3.42-5,.56-.45,4.22,3.75L40.35,15l.64-.46,4.94,7.15-1.29-5.37.55-.27,2.72,5.06-.85-8.74.72-.16,2.34,8.46.76-5.78h.49l.75,5.47L54.53,12l.52.07-.57,8.65,2.73-5,.56.31-1.21,5.32,5.26-6.95.51.3-4.2,8.16,4.41-3.73.46.39-3.57,5,7.62-5.28.48.42L61,26.23l5.27-2.36.43.42-4.63,3.9,8.63-2.68L71,26l-7.67,4h5.29l.08.76h9.91V78c0,3.36-3.83,7.85-13.08,9.32s-11.09,1.58-14.42,4.19c-3.32-2.61-5.17-2.7-14.42-4.17S23.49,81.4,23.5,78Z"/><path class="cls-5" d="M27.55,70.63H74.61V34.75H27.55Zm18.12-9.54.09-1.3c1.4.37,4,1.14,4.26,1.31Zm-.52-1.25L45,61.12H41.69a3.5,3.5,0,0,1,2.46-1.36C44.76,59.68,44.22,59.64,45.15,59.84ZM46,57.05l.17-1.69a9.62,9.62,0,0,1,3,1.69Zm-.51-.71-.84.78-.85,0c-.31-.1-1.14-2,1.8-2ZM57.39,68l.33,0,.41,0,.25-3.12c-2-.49-2.6,1.5-.74,3.15l-.21,0a6.75,6.75,0,0,1-2.12-3.59c-.76-3.45,1.62-8,4-10.16L59.62,51c0-.79.39-.77.39.09l0,3.07,4-.07c-2.14,1.18-3.82,2.46-4,5.6-.17,2.74,1.12,4.87,5.29,7.91l-.44,0c-3.46-2.5-3.95-2.39-5.72-2.78l-.18,3c3.56-.17,7.41-.09,10.92-1.11a2.67,2.67,0,0,1-.92,1.31,6.44,6.44,0,0,1-2.68,1,2.35,2.35,0,0,0-1.5,1.2l-26.07,0A20.94,20.94,0,0,0,31,62l.11-.28c4.34,2,8.78,4.86,13.39,4.62l.24-2.42c-.91-.33-3.72-.71-5,1.72.7-2-.41-2.33-1.7-.62.87-1.84.9-3-1.94-.85l6.2-5c0-.51,0-1.34.79-1.64-1.06,0-1-.29.12-.43-.79-1.62-1-3.76.78-4.34-1.35,0-1.35-.51,0-.5l1.88,0,.29-3c0-.9.5-1,.58-.11l-.3,3.11h3.86a4.81,4.81,0,0,0-1.59,1c-.7.7-.94,3.9,3.39,4.08-2.52.2-4.13,3.36-.84,4-3.3.72-3.61,3.15,0,6.37A19.21,19.21,0,0,0,45.42,64l-.21,2.29A11.14,11.14,0,0,0,48,66.18c.37.81,1.8,1.37,3.34,1.36l.84-6.07c0-.64,2.09-.11,2.09.53l-.23,5.89C56.11,67.9,55.9,68.11,57.39,68Zm.33,0h0Zm0,0h0Zm-.19,0h0Zm8.57-20.26.65-.5.66.35L67,46.84l.69-.47h-.85l-.24-.73-.25.74h-.82l.67.47Zm-7.42-.9.46-.58.76.22-.39-.58.43-.62-.77.09-.52-.56,0,.77-.82.27.81.22Zm2.13-5.08L61,41l.75,0-.5-.42.25-.87-.75.58-.85-.51.39.82-.5.6.73-.1Zm9.08-4.22.66-.47.66.43-.3-.73.54-.47-.73,0-.29-.7-.21.76-.7.11.67.34Z"/><path class="cls-5" d="M46.4,76.85l.26-.94.25.94m-1.17-2.59c.17,0,.18.08.17.26l-1.06,3.87c0,.08-.09.22-.2.22H46a.13.13,0,0,1-.06-.17l.2-.71h1.06l.2.71a.14.14,0,0,1-.06.17h1.34c-.11,0-.17-.14-.2-.22l-1.06-3.87c0-.18,0-.26.16-.26Zm.66,2.58h.51M28.78,78.61c.14,0,.19-.16.19-.33V74.7c0-.15,0-.38-.2-.45h2.67c.35,0,.49.18.5.47v2.13c0,.31-.39.33-.55.32A10.73,10.73,0,0,0,32,78.42c0,.12.26.18.31.18H31.23s-.08,0-.09-.07c-.26-.49-.6-1.36-1-1.36h-.31v1.18c0,.22.13.25.15.25Zm1.09-2.45v-1h1c.06,0,.13.07.13.18V76c0,.1,0,.17-.16.17Zm41,2.36a.83.83,0,0,1-.73-.88v-.22L71.18,77c-.11.07-.12.11-.12.38s0,.29.12.29h1.13c.19,0,.19-.11.19-.2s-.06-.15-.17-.23l-2-1.34V74.7c0-.41.34-.53.82-.53h1.64a.41.41,0,0,1,.46.37v.58l-.94.65v-.52c0-.12-.06-.2-.17-.2h-.38a.19.19,0,0,0-.17.2v.45l1.66,1.07a.47.47,0,0,1,.17.45v.42c0,.47,0,.88-.48.88Zm-14,.09c.2,0,.2-.23.2-.46V74.73c0-.26,0-.47-.2-.47H60.2v.88H58.11V76h1.53v.85H58.11v.88H60.2v.88Zm-3.88,0c.27,0,.27-.12.27-.34V74.63c0-.19,0-.37-.27-.37H54.6c-.29,0-.29.15-.29.36v3.11h1.9v.88Zm-3.8,0c.26,0,.26-.12.26-.34V74.63c0-.19,0-.37-.26-.37H50.8c-.29,0-.29.15-.29.36v3.11h1.9v.88Zm12.7,0a.89.89,0,0,1-.9-.88V75.14a.81.81,0,0,1,.9-.88h1.63c.41,0,.73.2.73.44v.44l-.94.53c.07-.12,0-.17,0-.32s0-.21-.15-.21h-.88a.49.49,0,0,0-.44.5v1.61a.49.49,0,0,0,.5.48h.76a.37.37,0,0,0,.37-.37v-.22h-.37c-.12,0-.18,0-.18.09v-.92c0,.08.09.11.2.11h1.26v1.31a.9.9,0,0,1-.91.88Zm-20.37,0a.89.89,0,0,1-.9-.88V75.14a.81.81,0,0,1,.9-.88h1.63c.41,0,.73.2.73.44v.44l-.94.53c.07-.12.05-.17.05-.32s0-.21-.15-.21h-.88a.49.49,0,0,0-.44.5v1.61a.49.49,0,0,0,.5.48h.76a.37.37,0,0,0,.37-.37v-.22h-.37c-.12,0-.18,0-.18.09v-.92c0,.08.09.11.2.11H44v1.31a.9.9,0,0,1-.91.88Zm25.32-.88a.35.35,0,0,1-.37-.38V75.61a.44.44,0,0,1,.48-.47h.71a.43.43,0,0,1,.44.47v1.72a.38.38,0,0,1-.41.4Zm-.37.88a.94.94,0,0,1-.91-.88v-2.6a.89.89,0,0,1,.91-.87h1.63a.93.93,0,0,1,.91.88v2.59a.86.86,0,0,1-.9.88Zm-30.12-.88a.35.35,0,0,1-.37-.38V75.61a.44.44,0,0,1,.48-.47h.71a.43.43,0,0,1,.44.47v1.72a.38.38,0,0,1-.41.4Zm-.37.88a.94.94,0,0,1-.91-.88v-2.6a.89.89,0,0,1,.91-.87h1.63a.92.92,0,0,1,.91.88v2.59a.86.86,0,0,1-.91.88Zm-3,0c.18,0,.18-.15.17-.26V74.67c0-.25,0-.4-.19-.4h1.27c-.17,0-.18.12-.18.38v3.69c0,.12,0,.27.17.27Z"/><path class="cls-6" d="M25.84,77V33.14H76.09V77c0,2.84-2.68,6.79-10.79,8s-11.56,1.78-14.39,3.71c-2.83-1.93-6.17-3.05-14.28-4.28S25.84,79.87,25.84,77"/></g></g></svg>