<svg xmlns="http://www.w3.org/2000/svg" xmlns:xlink="http://www.w3.org/1999/xlink" viewBox="0 0 1920.12 393.44"><defs><style>.cls-1{fill:url(#Degradado_sin_nombre_161);}</style><radialGradient id="Degradado_sin_nombre_161" cx="960.06" cy="196.72" r="692.97" gradientUnits="userSpaceOnUse"><stop offset="0.57" stop-color="#8e6cea"/><stop offset="0.87" stop-color="#7342d9"/><stop offset="0.99" stop-color="#7342d9"/></radialGradient></defs><g id="Capa_2" data-name="Capa 2"><g id="Capa_2-2" data-name="Capa 2"><path class="cls-1" d="M1920,93.44c-116.28,39.07-200.3,30.51-257,14-95.74-27.88-133-84.09-207-72-73.81,12.06-73.18,73.93-145,104-126,52.76-211.9-102.62-406-100-140,1.89-127.46,83.16-308,106-187.4,23.71-289.83-52.61-361,17-46.59,45.57-24.36,99.47-85,161-47.74,48.43-109.83,64-151,70,0-2.09,0-34.61.06-69.22Q.18,162.1.12,0l869,.4,704,.32,301,.14,46,0Z"/></g></g></svg>