<svg xmlns="http://www.w3.org/2000/svg" xmlns:xlink="http://www.w3.org/1999/xlink" viewBox="0 0 1930 1084.36"><defs><style>.cls-1{fill:url(#Degradado_sin_nombre_189);}.cls-2{fill:url(#Degradado_sin_nombre_161);}.cls-3{opacity:0.11;}</style><radialGradient id="Degradado_sin_nombre_189" cx="970" cy="831.44" r="701.28" gradientTransform="translate(-8.04 431.74) scale(1 0.6)" gradientUnits="userSpaceOnUse"><stop offset="0.3" stop-color="#045fd9"/><stop offset="0.4" stop-color="#045fd9"/><stop offset="0.57" stop-color="#045fd9"/><stop offset="0.87" stop-color="#277fe0"/></radialGradient><radialGradient id="Degradado_sin_nombre_161" cx="960.06" cy="196.72" r="692.97" gradientUnits="userSpaceOnUse"><stop offset="0.57" stop-color="#8e6cea"/><stop offset="0.87" stop-color="#7342d9"/><stop offset="0.99" stop-color="#7342d9"/></radialGradient></defs><g id="Capa_2" data-name="Capa 2"><g id="Capa_2-2" data-name="Capa 2"><path class="cls-1" d="M2,1080.44c125.53-19.07,166.16-42.67,287.19-70.25,245-55.84,567.27,104.25,739.07-7.2,153.64-99.67,426.17-56.12,541.24-82.26,129.54-29.42,237-131.49,350.46-139.29,0,97.62,10,201.38,10,299Z"/><path class="cls-2" d="M1920,93.44c-116.28,39.07-200.3,30.51-257,14-95.74-27.88-133-84.09-207-72-73.81,12.06-73.18,73.93-145,104-126,52.76-211.9-102.62-406-100-140,1.89-127.46,83.16-308,106-187.4,23.71-289.83-52.61-361,17-46.59,45.57-24.36,99.47-85,161-47.74,48.43-109.83,64-151,70,0-2.09,0-34.61.06-69.22Q.18,162.1.12,0l869,.4,704,.32,301,.14,46,0Z"/><g class="cls-3"><path d="M181.44,1080.44c15-13.84,14.36-29.47-3.57-39.5-15.17-8.49-31.84-14.26-48-20.76-46.21-18.54-82.08-49-102.5-95.82C1,864,21.88,787.78,92.64,759c39.16-15.9,79.42-18,120.53-12.14,47.27,6.7,91.61,23.17,135.1,42.53,18.5,8.24,37.59,14.33,58.08,14.36,26.86,0,45.94-13.2,56.46-39.33a138.21,138.21,0,0,0,5.74-16.54c13.3-50.63,47.65-76.67,96.3-84.88,51.85-8.75,100.57,22.91,115,73.67,5.82,20.47,5.11,41,.25,61.56-1.51,6.41-3.14,12.8-4.3,19.27-2.39,13.24,2.76,25.9,12.06,30.38,11.28,5.43,23.69,2.27,32.65-8.85,10.17-12.63,19.58-25.9,33.32-35,35.06-23.26,72.25-30.6,111.74-14,48.39,20.35,70.09,77,48.66,125.67-9.31,21.13-26.7,33.95-46.08,44.35-6.77,3.63-13.71,6.92-20.41,10.67-7.08,4-12.51,9.45-11.76,18.48.79,9.64,7,15.24,15.22,18.65,11.62,4.86,23.33,3.78,35-.25,15.7-5.43,28.1-15.48,38.16-28.65,9.55-12.51,18.09-25.89,28.25-37.85,20.69-24.36,45.88-41.59,77.31-48.67,37.84-8.54,75.66,5.58,98.15,37.43,21.57,30.53,22.28,72,2,105.62-9.43,15.63-22.09,28.1-36,39.44a66.44,66.44,0,0,0-5.38,5.49h-81.83c.3-11.6,3.62-22.61,10.89-31.14,9.47-11.12,20.62-20.74,30.88-31.18,7.21-7.35,15.59-14.06,20.86-22.7,9.37-15.36-1.09-31.69-18.94-31.16a40.06,40.06,0,0,0-27.11,11.81c-10.8,10.57-20.6,22.22-30.53,33.68-11,12.74-21.09,26.45-32.77,38.53-15,15.48-33.68,25.21-53.76,32.16H831.71c-8.89-4.57-18.2-8.46-26.62-13.81C757,1036.08,747.2,971.7,785,929.42c8.88-9.93,21.82-16.15,33.1-23.75,8.32-5.6,17.49-10,25.32-16.2,6-4.74,7.88-12.48,5.37-20s-8.46-11.72-16.19-12.65a46.37,46.37,0,0,0-12.11-.19c-18,2.67-30.52,14.21-41.78,27.55-24.66,29.23-55.43,43.55-93.35,39.07-45.46-5.38-89.72-47.43-83.47-104.32,1.51-13.72,5.78-27.12,8.49-40.72,2.78-13.89.54-26.46-11.33-35.37s-24.42-8.15-37.16-1.52c-14,7.26-18.92,20.68-23.06,34.64-6.18,20.85-15.43,40-29.93,56.13-32.55,36.22-72.95,51.18-120.63,45.8-26.7-3-51.25-13.46-75.74-23.77-42.75-18-86-34-132.66-37.23-21.83-1.53-43,.91-62.17,12.92-23.45,14.71-31.06,37.78-21.08,63a87.68,87.68,0,0,0,29,38.31c20,15.22,43,23.08,66.63,29.55,54.94,15,83.84,68.65,72.5,119.83Z"/><path d="M1170.49,1080.44c-.11-24.36,8.17-46,21.54-65.57,26.88-39.31,65.21-54.73,110.88-53.63,27.56.66,52.2,10.69,75.25,25.49,16.75,10.76,34.36,19.49,54.53,20.36,24,1,45.62-14.35,55-39.26,16.77-44.33,9.31-85.73-15.2-124.93-13-20.8-29.83-38.08-47.42-54.68-23.53-22.2-47.53-43.78-67.39-69.8-55.63-72.92-17.93-167.41,60-194,38.13-13,73.8-9.1,104.87,18.31a107.64,107.64,0,0,1,25.84,33.33c6.79,13.83,19,38.13,10.47,59.65-2.81,7.1-7.49,12.93-5.92,21.71.79,4.41,3,8.55,10,16a132.27,132.27,0,0,0,29,23,18.81,18.81,0,0,1-7,36,72.29,72.29,0,0,1-26.54,1c-12.94-1.92-21.7-7.21-28.24-10.57-33.25-17-48.67-46.29-44.48-84.07a78.3,78.3,0,0,0,.36-13.17c-2.1-35.81-31.38-40.95-52.57-29.31-27.64,15.17-36.35,46.76-18.21,72.82,11.25,16.16,25.24,30.56,39.26,44.42,25.77,25.47,52.78,49.62,74.16,79.38,35.82,49.85,51.89,104.5,39,166.21-8.44,40.55-27.08,74.83-59.83,100.29-13.29,10.34-28.62,16.07-44.37,20.88a91.82,91.82,0,0,1-53.35.07c-7.3-2.21-15-3.51-21.81-6.81-15.91-7.72-31.51-16.14-47-24.76-13.46-7.5-26.67-15.4-42.51-16.17-33.8-1.64-53.46,24.72-55.22,47.74Z"/><path d="M1190.59.44c-7.72,46.75-33.66,80.66-74.61,100.24-34.52,16.5-56.35,42.06-69.8,77.32-7.19,18.86-15.4,37.37-29,52.74-30.39,34.48-75.6,43.61-116.21,22.92-10.45-5.33-20.34-11.8-30.49-17.75-3.52-2.06-6.93-4.38-10.59-6.15-12.82-6.18-24.48-3.5-31.11,7-6.45,10.16-3.86,25.21,6.35,33.6,11.83,9.73,26.06,14.34,40.54,17.61,31.9,7.22,63.31,16.5,91.35,33.58,52.14,31.77,80.75,78.87,79.59,141.94a201.67,201.67,0,0,1-8.77,54.59c-8.63,28.24-38.48,36.86-57.89,18.13-13.27-12.79-18.08-29-15.25-47.36,1.44-9.39,4.18-18.62,5-28.05,2.81-33.55-13.36-56.91-39.86-74-19.68-12.7-41.94-18.53-64.26-24.09-28.31-7-55.36-17.11-78.3-36.25C747,292.83,738.37,231.87,768.75,190c21.1-29.08,50.9-39.13,85.33-35.84,21.18,2,39.86,11.32,57.68,22.66a161,161,0,0,0,14.33,8.29c17.9,9,32.88,5,42.79-12.76a250.36,250.36,0,0,0,16.27-36.61c15.57-42.82,44.22-72.9,84.09-92.54,16.81-8.28,32.11-18.52,41.17-36.09,1.08-2.11,1.78-4.44,2.66-6.66Z"/><path d="M527.39.44c.32,16.42,8.79,29.09,18.45,41.06C559,57.74,575.82,69.41,593,80.62c24.63,16.1,48.53,33.21,69.52,54.08,33.07,32.89,53.8,71.7,51.14,120.34-2.52,46-23.29,82.73-56.87,112.68A369.73,369.73,0,0,0,626.57,398c-4.51,5.07-7.4,11.83-10.23,18.2-2.49,5.6-1.35,11.23,3.72,15.09s11.19,3.65,16.11,0c5.58-4.09,10.38-9.3,15.41-14.15,12.15-11.7,23.09-25.11,36.57-34.88,33.23-24.1,69-29.42,105.54-7.48,16.56,10,29.52,23.74,29.36,45.44-.18,24.1-21.75,40.61-44.5,34-5.64-1.65-11-4.65-16.16-7.64-16.57-9.65-26-9.43-40.46,3.26-8.32,7.28-15.8,15.64-23.08,24-27.53,31.76-72.25,44.4-107.33,30-32.33-13.26-53.51-51.15-49.09-86.33C546.9,382,564,354,589.34,330.24c11.27-10.55,23.32-20.6,32.82-32.68,24-30.47,22.68-67.51-1.51-98.22-15.71-20-36-34.05-56.36-48.32-21.46-15.07-43.37-29.69-63.52-46.46C473.69,82,453.68,54,446.87,17.92c-1.08-5.7-.9-11.65-1.3-17.48Z"/><path d="M1586.78,412.78c-5.84,15.2-11.14,30.21-9.13,47.33,2.88,24.49-20.48,43.38-43.77,36.44-23-6.86-37.56-30.8-32.13-57.23,3.79-18.46,10.15-36.54,16.9-54.16,12.14-31.69,13.44-62.71-2.05-93.5-14.61-29-38.22-47.68-67.29-59.6-14.17-5.8-28.85-10.3-42.93-16.3a142.25,142.25,0,0,1-48.57-34.37c-23-24.68-27.26-51.7-11.59-81.8,20.67-39.7,53.85-63.45,96-73.84,24.59-6.06,47.25-5.84,68,.49,31,9.48,49.88,30.16,62.19,44.08,56.12,63.46,98.84,135.3,128.62,160.12,24,20,40.48,38.09,35.49,53.07-1.81,5.42-7.58,14.42-17.49,15.93-11.69,1.78-20.35-8.23-21-9-121.37-107.26-163.23-148.85-171.77-161.91A167.15,167.15,0,0,0,1510,110.06c-7.44-7.44-16.11-13.15-26.69-14.67-21.56-3.12-40.65,3-57.26,17.12-14.89,12.63-13.76,23.42,3.68,32,10.06,5,20.66,8.88,31.2,12.76,44.08,16.21,82.12,41.16,110.59,79.82,5.69,7.72,10.24,16.31,15.31,24.5Z"/><path d="M373.79,1080.44H297.71c.46-24.2,9-44.8,26.79-60.9,21.55-19.5,47.28-25.24,74.88-20.13,13.91,2.58,27.33,8.28,40.72,13.28,17.22,6.44,34.68,12.43,53,7.67,9.17-2.38,18.2-7.27,26-12.9,15.76-11.4,29.78-25.46,46-36C619,936.73,693.3,957,723.27,1013.76c11,20.81,14.12,43.31,12.27,66.68H663.76c.15-2.68.28-5.37.44-8,1.45-25.54-17.06-45.4-42-45-17,.27-29.27,10.49-41.53,20.83-12.86,10.86-25.92,21.49-38.9,32.22H412.55c-6.6-3.17-13-6.94-19.87-9.29"/><path d="M343.65.44c12.53,7.87,26,14.53,37.41,23.86,25.06,20.52,39.5,48.47,48.42,79.54,4.21,14.66,11,27,23.49,36.43C465.3,149.59,471.14,163,466.72,179c-4.18,15.21-14,24.83-29.43,27.42-10.62,1.77-20.45-1.52-29.31-7.23-24.29-15.67-38.44-38.82-45.65-66.73-4.07-15.75-9.74-30.55-20.25-43.13-24.22-29-66.65-34.9-95.47-12.36-7.43,5.8-13.09,14.08-19.15,21.57-7.58,9.36-16.31,16.72-28.62,17.52-31.21,2-50.9-27.59-37.85-57.19,8.4-19,22.83-32.95,39.38-44.56,7.26-5.09,15.11-9.3,22.7-13.9Z"/><path d="M1005.41.44c-4.34,21.62-10.23,42.66-22.58,61.18C961.59,93.5,933.17,114.6,895,118c-14.46,1.29-29.38-2.29-44-4.17-17.5-2.25-35.06-3.89-51,5.59a102,102,0,0,0-21.47,17.86c-11.53,12.28-24.28,19.86-41.39,15.13-21.72-6-32.39-30.79-22.78-53.11,8.83-20.51,25.12-33.34,44-43.21C793,38,829.31,34.43,867.05,42.67,898.7,49.58,918.19,37.87,928.3,6a46.9,46.9,0,0,0,1-5.58Z"/><path d="M2,430.38c39.78-12.95,79.6-10.2,119.53-.69,8.11,1.93,16.45,3,24.72,4.08,10.95,1.48,19.75-2.88,26.36-11.59,5.7-7.52,10.92-15.42,16.31-23.19,8-11.51,17.42-20.88,32-22.64,23.23-2.8,42.62,18.82,37.09,42.43a91.81,91.81,0,0,1-11.38,26.6c-15.26,24.73-33.73,46.16-61.42,57.21-23.92,9.55-48.15,8.47-72.62,3.08-33.06-7.29-66.15-10.18-99.28-.6-3.87,1.12-7.51,3-11.26,4.55Z"/><path d="M1361.41.44c-.1,9.62-4.24,17.6-10.65,24.08a188.64,188.64,0,0,1-21.62,19.17,193,193,0,0,0-44.7,46.05c-28.54,41.47-66.87,70.58-111.69,91.32-10.35,4.8-19.86,11.83-32.09,11.43a36.34,36.34,0,0,1-33.92-25.71c-4.55-15,.88-33.36,13.75-41.51,14.18-9,29.09-16.74,43.78-24.85C1189,86.79,1208,67,1225.09,44.56,1236.22,30,1249,16.71,1261,2.82a14.77,14.77,0,0,0,1.41-2.38Z"/><path d="M2,619.68C7.35,626.49,12.05,634,18.17,640c15,14.67,33,20,53.44,15.14a29,29,0,0,0,8.57-3.53c12.7-8,12.88-22.41.6-31.05-4.5-3.17-9.49-5.93-13.2-9.9-13.44-14.37-15.39-36-5.24-52,10-15.74,29.52-22.34,48.12-15,32.64,12.82,48.78,38.65,52.1,73.26,6.81,71.18-47.92,120.75-114.91,116.27-15.38-1-30.44-7-45.65-10.77Z"/><path d="M148.42.44c-6,7.85-11.19,16.52-18.11,23.38-16.65,16.51-28.74,35.89-40.53,56.24-18.82,32.46-40.6,63.15-61.39,94.4C20,187.14,10.82,199.33,2,211.74V95.82a25.52,25.52,0,0,0,2-2.88c16-31.13,29.57-63.65,49.64-92.5Z"/><path d="M2,1011.47c23.63-3.26,44.06,6.43,64,17.21,11.36,6.15,22,13.78,32.76,21,21.14,14.11,43.59,25.12,68.36,30.78H2Z"/><path d="M725.49.44C717.66,12.86,709.86,25.3,702,37.69c-4.79,7.53-9.05,15.53-14.68,22.35-13.77,16.67-34.87,17.67-50.58,3-15.12-14.16-26.61-38.13-14.5-61.16.19-.35-.05-.94-.09-1.41Z"/><path d="M1556.64,1080.44c-7.67-40.64,61.84-132.61,107.36-101,21,17,10,29.46-56,101Z"/><path d="M544.67,562.32c-1.29,50.77-33.29,92.92-80.6,104.67-45.16,11.23-91.94-10.78-112.77-53.1-5-10.24-9.1-21.09-15-30.74-13.94-22.62-42.83-24.06-58.95-3.64-10.53,13.34-12.06,43.75,10.39,54.25a88.22,88.22,0,0,1,11.92,6.69A37.54,37.54,0,0,1,314.94,682c-4.3,15.35-17.7,25.53-34.52,25.64-24.22.16-43.19-11.43-58.61-29.33-29.13-33.82-34.2-86.24-13-127.71,20.39-39.84,61.16-62,106.31-56.68,39.22,4.63,68.91,24.5,87.5,60.65q5.5,10.7,10.93,21.44c7.81,15.39,17.77,21.82,30.22,19.49,15-2.82,24.44-13.64,26.29-30.56,2.39-22-6.95-38.87-22.6-52.7-19.61-17.33-42.81-28.32-66.55-38.18-25.44-10.56-49.09-23.67-68.62-44.11-50.24-52.58-42.56-136.28,17.28-177.16,38.35-26.2,99.75-23.84,132.77,28.75a49.28,49.28,0,0,1,3.47,5.54c6.1,13.33,16.73,19.17,30.51,22.44,27.88,6.62,39.62,36.73,23.34,58.38-9.79,13-23.74,17-39.07,14.86-25.09-3.44-45.53-15.58-60.78-36.41-5-6.84-9.62-14-14.66-20.81-8.72-11.79-17.36-15-29.84-11.37-12,3.47-20.59,14.21-22,27-1.52,14.31,2.94,26.37,12.43,36.82,12.35,13.6,28.2,21.41,44.35,29,19.3,9.05,39.29,17.09,57.26,28.43,34.23,21.6,60.91,50.5,71.52,91.66C541.88,538.56,542.81,550.57,544.67,562.32Z"/><path d="M1107.49,300c6.38,1.43,12.71,3.19,19.16,4.21,27.38,4.36,52.8,13.23,74.08,32.26a99.15,99.15,0,0,0,13.44,9.74c15.16,9.59,26.31,6.83,37-7.72,8.31-11.27,16.75-22.68,26.6-32.49,17-16.91,35.57-31.71,59-39.07,53.75-16.92,110.83,6.16,134.69,55,18.65,38.13,10.44,84.84-20.55,117.6-15,15.84-32.7,27.58-51.77,37.58a160.83,160.83,0,0,0-23.44,15.24c-12.61,9.74-25.93,15.08-41.31,8.27-15-6.65-22.42-19.23-23.67-35.6-1-13.78,4.41-25.2,15-33.12,8.59-6.42,18.34-11.31,27.8-16.42,11.58-6.26,23.76-11.45,35-18.3,5.51-3.37,10.4-8.84,13.9-14.45,12-19.19,3.18-40.72-18.46-46.23-18-4.59-34.24,0-47,13.07-12.41,12.73-23.5,26.91-34.29,41.14-32.22,42.53-86.93,46.52-127.62,17.75a221.19,221.19,0,0,1-19.45-15c-13.35-11.9-29-17.2-46.33-19.21a106.16,106.16,0,0,1-43.21-14.69c-43-26.06-39.66-72-18.43-100.17,17.73-23.48,42.24-34.65,70.56-37,13.3-1.09,26.77-.1,40.17,0,25.11.15,46.33-9.77,65.38-25.84,11.77-9.93,23.56-20,36.22-28.61,11.28-7.72,24.19-10.22,37.69-5.52,22.95,8,31,37.91,13.75,55.36-12.48,12.64-27.38,22.76-40.61,34.69a151.6,151.6,0,0,1-45.42,28.8c-24.68,9.9-50.32,12.82-76.69,11.94-11.11-.38-22.31,1.17-33.44,2.2-2.67.25-5.2,1.93-7.8,2.95Z"/><path d="M683.39,626.89c2.35-56.93,29.33-94,76-116.83C771.78,504,785.3,500,798.66,496.54c27.45-7.09,47.18-22.5,57-50.27,5.91-16.64,17.93-26.48,35-28.71,24.15-3.15,45.49,21.51,38.85,46-9,33.36-27.87,60.21-56.16,79.75-16.24,11.22-34.21,18.31-53,23.3-13.92,3.69-27.6,7.77-39.56,16.44-17.44,12.65-25.87,32-21.33,49.8,6.71,26.26,35.8,35.44,55.33,17.08,6.28-5.9,11.68-12.94,16.72-20,22-31,50.52-51.17,88.43-54.9,31.16-3.06,60.19,4.71,87.22,20.68a134.47,134.47,0,0,1,46.78,45.56,75.43,75.43,0,0,0,27.74,26.87c17.06,9.57,23.26,31,15.21,48.92-7.13,15.85-26.45,23.63-44.78,17.56-19.63-6.5-34.3-19.82-46.36-36.49-6-8.24-11.21-17.22-18.11-24.54-18-19.07-39.78-28.5-66-23.3-13.24,2.62-21.7,12.83-30.12,22.49-5.4,6.18-9.92,13.16-15.07,19.58-27.9,34.78-64.18,48.76-106.68,39.26-41.9-9.37-69.6-37.21-82.5-79.28C684.51,643.4,684.35,633.63,683.39,626.89Z"/><path d="M1300.05,580.54c-.48,38.07-14.61,68.57-35.18,96.46-6.61,9-13.65,17.63-20.85,26.12-8.83,10.4-14.56,21.83-16.51,35.8-3.11,22.3-19.58,36.14-39.26,34.59-17-1.34-31.89-16.92-34.74-36.69-3-21,3.31-40,14.45-56.86,10.25-15.54,22.3-29.86,33.86-44.47,13.86-17.51,24.27-36.34,23.29-59.8-1.4-33.78-33.33-58.52-65.13-49.78-6.55,1.8-13.09,6.16-18,11.05-9.94,9.89-7.79,22.95,3.46,31.26,7.46,5.51,15.84,10.7,21.19,18,15.2,20.85,1,51.06-24.26,54.17-17.77,2.19-32.43-4.6-45.57-15.45-54.65-45.16-40.67-119.5,8.15-153.33,58.58-40.59,137.59-21.55,176,41.63A131.77,131.77,0,0,1,1300.05,580.54Z"/><path d="M1064.68,777.51c48.43-.24,89.3,18,124.48,51.31a224.73,224.73,0,0,0,30.16,24.58c16.2,10.72,35.9,9.81,49.15-.57,13.6-10.65,17.16-27.92,10-43.82-6-13.22-12.41-26.51-16-40.47-4.39-17.11,5.62-35,20.58-41.64,17.31-7.7,35.29-4.22,44.8,12.37,15.15,26.41,30.49,53.31,29.46,85.8-1.32,41.9-20.15,73.37-55.45,93.76-40,23.13-80.5,22.11-119.49-2.91-13.26-8.51-25.3-19.17-37.26-29.61-17.46-15.23-35.54-28.86-59-32.69A127.09,127.09,0,0,0,1026,858c-10.1,3.24-20.29,6.16-30.86,2.75-14.11-4.55-24.54-17.69-25.15-32.47-.67-16.07,5.9-29.51,20.2-35.83,13.39-5.93,28.05-9.25,42.45-12.23C1043,778.09,1054,778.34,1064.68,777.51Z"/><path d="M22,304.13c-.05-19.39,3.92-37.94,12.91-55,18.69-35.42,41.16-68.22,69.77-96,7.49-7.27,17.62-12.63,27.47-16.24,14.92-5.47,31.22,1.05,38.6,13.11,7.79,12.71,6.43,31.07-4.39,42.87s-23.65,22.19-34.06,34.52a252.88,252.88,0,0,0-26,37.53c-11.11,19.43-11.17,38,4.49,56.57,18,21.39,6.67,55.36-19.53,61-14.67,3.18-28.63-.42-40.63-9.69C30.35,357.16,23.33,334.87,22,310,21.91,308,22,306.08,22,304.13Z"/><path d="M316.76,163.43c.07,15.75-5.73,31.11-14.4,44.41-14.67,22.47-31.35,43.57-47.16,65.28-10.53,14.47-20.89,29.07-31.56,43.44-4.74,6.37-9.29,13.24-15.24,18.26-13.92,11.74-33.11,11.79-46.41,1.29-15.18-12-21.37-31.33-12.39-48.14,7.91-14.83,18.38-28.43,29-41.51,15.2-18.78,33.15-35.35,44.57-57.11,8.22-15.68,15.08-32.1,23.33-47.76,6.38-12.1,16-20.73,30.22-22,20.31-1.75,37.66,13.55,39.57,34.74C316.51,157.06,316.57,159.75,316.76,163.43Z"/><path d="M586.3,230.57c-.47,25.95-18.89,43.29-45.46,42.76-24.61-.49-43.23-19.71-43.05-44.42.19-25.09,19.93-43.81,45.59-43.24C567.22,186.2,586.72,206.61,586.3,230.57Z"/><path d="M1411.69,942.6c-22,0-38.71-16.44-38.76-38.34-.06-22.07,17-39.55,38.62-39.55,21.83,0,38.69,16.81,38.69,38.55C1450.23,925.85,1433.86,942.56,1411.69,942.6Z"/><path d="M417.23,732.32c0,21.32-16.12,36.84-38.15,36.79s-39.47-17.33-39.29-38.89c.17-22,17-38.29,39.63-38.4C400.23,691.73,417.26,710,417.23,732.32Z"/><path d="M620.08,540.3c20.34.43,36.35,17.6,35.94,38.53-.44,22.2-17,38.16-39.11,37.59-20.16-.53-36.46-18.46-36-39.61C581.3,556.85,599.53,539.86,620.08,540.3Z"/><path d="M971.09,743.68c0,21.52-15.68,37.43-36.75,37.33-21.22-.1-37.51-16.41-37.7-37.74-.17-20.48,17.1-38,37.64-38.12S971.1,722.2,971.09,743.68Z"/><path d="M310.19,975.94c-7.22-2.71-20.22-6.24-32-12.28-27.11-13.9-54.18-27.73-83.06-37.5a68.2,68.2,0,0,1-12.26-6c-16.91-9.85-24.08-28.22-17.9-45.4,6-16.61,24.36-27.83,42.28-23.55,13.81,3.31,27.28,8.75,40.34,14.57,23.84,10.62,47.4,21.92,70.78,33.57A99.45,99.45,0,0,1,341,914.46c11.59,10.57,14.35,26.59,8.63,41C344.66,967.9,331.3,976.1,310.19,975.94Z"/><path d="M547.69,861.46c9,.2,19.06,5.81,25.06,17.73,6.85,13.61,5.19,27.09-2.86,39.5a56.19,56.19,0,0,1-12.76,13.74c-31.1,23.88-65.2,41.43-103.75,48.75-15.22,2.89-29.08-.61-39.9-12.64-16.67-18.53-11.61-44.24,11-54.06,9.36-4.05,19.44-6.59,29.37-9.06,21.84-5.43,40.49-16.74,57.81-31C523,865.16,533.13,861.44,547.69,861.46Z"/><path d="M1920,459.44c-40,23.13-64.28,18-103.27-7-13.26-8.52-25.3-19.18-37.26-29.61-17.46-15.24-35.54-28.87-59-32.69a127.22,127.22,0,0,0-60.17,4.41c-10.1,3.24-20.29,6.17-30.86,2.76-14.1-4.56-24.54-17.7-25.15-32.47-.67-16.08,5.91-29.51,20.2-35.83,13.39-5.93,28-9.25,42.45-12.24,10.45-2.17,21.38-1.92,32.1-2.74,48.42-.25,89.29,18,124.47,51.31a225.36,225.36,0,0,0,30.16,24.58c16.2,10.71,35.9,9.81,49.16-.58,13.59-10.64,17.15-27.92,10-43.82-6-13.21-12.41-26.5-16-40.47-4.39-17.11,8.2-34.95,23.17-41.61"/><path d="M1668.64,685.24c-24.53-29.12-33.78-61.43-36.46-96-.86-11.11-1.2-22.27-1.31-33.39-.12-13.65-3.25-26-10.92-37.89-12.23-18.9-8.81-40.15,7.09-51.84,13.7-10.07,35.19-8.05,50.27,5,16,13.89,23.63,32.4,26.25,52.47,2.41,18.46,2.66,37.17,3.46,55.78,1,22.32,5.41,43.36,21.49,60.48,23.15,24.64,63.48,22.47,81.83-4.94,3.78-5.64,5.87-13.22,6.4-20.13,1-14-9.11-22.46-23.06-21.39-9.25.71-19,2.27-27.82.22-25.14-5.83-34.17-38-17.07-56.85,12-13.27,27.54-17.73,44.58-18.11,70.88-1.57,108.91,63.81,94.1,121.34-17.78,69-90,106.27-160.4,83.61A131.74,131.74,0,0,1,1668.64,685.24Z"/><path d="M1863.58,96.73c-22,0-38.71-16.45-38.77-38.35,0-22.07,17-39.55,38.63-39.55,21.83,0,38.69,16.81,38.69,38.55C1902.12,80,1885.75,96.68,1863.58,96.73Z"/><path d="M1716,1080.44c-24.5-39.69-28.42-66.44-14.5-113.12,13.17-44.17,41.92-75,81.57-96.34a368.37,368.37,0,0,0,36.39-22.38c5.56-3.87,10-9.78,14.19-15.31,3.72-4.87,3.93-10.61-.1-15.55s-10-6.15-15.66-3.78c-6.38,2.68-12.26,6.63-18.28,10.17-14.54,8.55-28.31,19-43.7,25.4-37.93,15.7-74,12.53-104.38-17.32-13.78-13.54-23.17-30-18-51,5.79-23.39,30.6-34.42,51.18-22.66,5.11,2.92,9.63,7.08,13.94,11.19,13.86,13.24,23.07,15.22,40.11,6.26,9.78-5.14,19-11.53,28-18,34.17-24.47,80.61-26.34,111.37-4.18,28.34,20.43,40.11,62.22,27.62,95.39-12.63,33.52-35.8,56.8-66,74-13.41,7.64-27.47,14.61-39.53,24.14-30.41,24-18.72,97.65-2.35,133.16"/><path d="M1631.88,953.45c-22.05,0-38.72-16.45-38.77-38.35,0-22.07,17-39.54,38.63-39.54,21.83,0,38.69,16.81,38.68,38.55C1670.42,936.7,1654.05,953.41,1631.88,953.45Z"/><path d="M1920,191.44c-10.35,4.79-80.74,65.45-93,65.05a36.34,36.34,0,0,1-33.92-25.71c-4.55-15,.88-33.36,13.75-41.51,14.18-9,29.09-16.74,43.78-24.85,24.7-13.63,52.25-34.58,69.36-57"/><path d="M1714.72.44c3,11.94,3.32,24.8,4.8,37.18,2.1,17.51,4.81,34.93,17.9,48A101.68,101.68,0,0,0,1760,102.1c14.72,8.18,25.2,18.68,24.8,36.43-.51,22.52-21.93,38.94-45.92,35.09-22-3.55-38.47-16.2-52.67-32.13-26-29.14-38.35-63.46-39.6-102.07-.57-17.82-5.71-30.68-15.78-39Z"/></g></g></g></svg>